<?xml version="1.0" encoding="utf-8"?>
<!-- Generator: Adobe Illustrator 16.0.0, SVG Export Plug-In . SVG Version: 6.00 Build 0)  -->
<!DOCTYPE svg PUBLIC "-//W3C//DTD SVG 1.1//EN" "http://www.w3.org/Graphics/SVG/1.1/DTD/svg11.dtd">
<svg version="1.1" id="Layer_1" xmlns="http://www.w3.org/2000/svg" xmlns:xlink="http://www.w3.org/1999/xlink" x="0px" y="0px"
	 width="185px" height="188px" viewBox="0 0 185 188" enable-background="new 0 0 185 188" xml:space="preserve">
<g>
	
		<radialGradient id="SVGID_1_" cx="750.8438" cy="-757.3257" r="20.1122" gradientTransform="matrix(0.498 0 0 -0.498 -356.2961 -327.3156)" gradientUnits="userSpaceOnUse">
		<stop  offset="0" style="stop-color:#FFCF4F"/>
		<stop  offset="1" style="stop-color:#F4C236"/>
	</radialGradient>
	<path fill="url(#SVGID_1_)" d="M8.91,61h6.791c1.607,0,3.604-1.128,4.432-2.511l5.72-9.519c0.677-1.396,0.653-3.426-0.119-4.713
		l-3.378-5.592L8.91,61z"/>
	
		<radialGradient id="SVGID_2_" cx="738.791" cy="-747.1118" r="27.6573" gradientTransform="matrix(0.498 0 0 -0.498 -356.2961 -327.3156)" gradientUnits="userSpaceOnUse">
		<stop  offset="0" style="stop-color:#08A960"/>
		<stop  offset="1" style="stop-color:#07914B"/>
	</radialGradient>
	<path fill="url(#SVGID_2_)" d="M16.209,33.514L1.108,58.763C0.524,60.011,1.131,61,2.629,61H8.91l13.446-22.335L16.21,28.492
		C17.039,29.87,17.039,32.13,16.209,33.514"/>
	
		<radialGradient id="SVGID_3_" cx="748.2422" cy="-707.4307" r="40.5387" gradientTransform="matrix(0.498 0 0 -0.498 -356.2961 -327.3156)" gradientUnits="userSpaceOnUse">
		<stop  offset="0" style="stop-color:#567FC0"/>
		<stop  offset="1" style="stop-color:#557FC0"/>
	</radialGradient>
	<path fill="url(#SVGID_3_)" d="M2.629,1C1.015,1,0.375,2.133,1.205,3.511l24.529,40.745c0.772,1.288,0.795,3.317,0.119,4.713
		l5.963-9.925L8.914,1H2.629z"/>
	
		<radialGradient id="SVGID_4_" cx="760.3076" cy="-697.4663" r="33.0575" gradientTransform="matrix(0.498 0 0 -0.498 -356.2961 -327.3156)" gradientUnits="userSpaceOnUse">
		<stop  offset="0" style="stop-color:#E14C40"/>
		<stop  offset="1" style="stop-color:#CD392D"/>
	</radialGradient>
	<path fill="url(#SVGID_4_)" d="M8.914,1l22.903,38.045l3.321-5.53c0.83-1.385,0.83-3.645,0-5.023L20.133,3.511
		C19.305,2.133,17.308,1,15.701,1H8.914z"/>
</g>
<g>
	
		<radialGradient id="SVGID_5_" cx="750.8438" cy="-883.8291" r="20.1135" gradientTransform="matrix(0.498 0 0 -0.498 -356.2961 -327.3156)" gradientUnits="userSpaceOnUse">
		<stop  offset="0" style="stop-color:#CCCCCC"/>
		<stop  offset="1" style="stop-color:#C0C0C0"/>
	</radialGradient>
	<path fill="url(#SVGID_5_)" d="M8.91,124h6.791c1.607,0,3.604-1.128,4.432-2.512l5.72-9.518c0.677-1.396,0.653-3.429-0.119-4.716
		l-3.378-5.592L8.91,124z"/>
	
		<radialGradient id="SVGID_6_" cx="738.791" cy="-873.6182" r="27.657" gradientTransform="matrix(0.498 0 0 -0.498 -356.2961 -327.3156)" gradientUnits="userSpaceOnUse">
		<stop  offset="0" style="stop-color:#A0A0A0"/>
		<stop  offset="1" style="stop-color:#7B7B7B"/>
	</radialGradient>
	<path fill="url(#SVGID_6_)" d="M16.209,96.514l-15.101,25.25C0.524,123.012,1.131,124,2.629,124H8.91l13.446-22.335L16.21,91.492
		C17.039,92.87,17.039,95.13,16.209,96.514"/>
	
		<radialGradient id="SVGID_7_" cx="748.2422" cy="-833.9365" r="40.5381" gradientTransform="matrix(0.498 0 0 -0.498 -356.2961 -327.3156)" gradientUnits="userSpaceOnUse">
		<stop  offset="0" style="stop-color:#848484"/>
		<stop  offset="1" style="stop-color:#838383"/>
	</radialGradient>
	<path fill="url(#SVGID_7_)" d="M2.629,64c-1.613,0-2.254,1.133-1.424,2.511l24.529,40.745c0.772,1.288,0.795,3.316,0.119,4.713
		l5.963-9.925L8.914,64H2.629z"/>
	
		<radialGradient id="SVGID_8_" cx="760.3076" cy="-823.9727" r="33.0572" gradientTransform="matrix(0.498 0 0 -0.498 -356.2961 -327.3156)" gradientUnits="userSpaceOnUse">
		<stop  offset="0" style="stop-color:#626262"/>
		<stop  offset="1" style="stop-color:#474747"/>
	</radialGradient>
	<path fill="url(#SVGID_8_)" d="M8.914,64l22.903,38.045l3.321-5.529c0.83-1.386,0.83-3.646,0-5.021l-15.004-24.98
		C19.305,65.133,17.308,64,15.701,64H8.914z"/>
</g>
<radialGradient id="SVGID_9_" cx="752.4824" cy="-1008.3271" r="20.1139" gradientTransform="matrix(0.498 0 0 -0.498 -356.2961 -327.3156)" gradientUnits="userSpaceOnUse">
	<stop  offset="0" style="stop-color:#FFCF4F"/>
	<stop  offset="1" style="stop-color:#F4C236"/>
</radialGradient>
<path fill="url(#SVGID_9_)" d="M9.726,186h6.791c1.606,0,3.604-1.128,4.432-2.512l5.721-9.518c0.676-1.396,0.652-3.429-0.119-4.716
	l-3.379-5.592L9.726,186z"/>
<radialGradient id="SVGID_10_" cx="740.4277" cy="-998.1162" r="27.6563" gradientTransform="matrix(0.498 0 0 -0.498 -356.2961 -327.3156)" gradientUnits="userSpaceOnUse">
	<stop  offset="0" style="stop-color:#08A960"/>
	<stop  offset="1" style="stop-color:#07914B"/>
</radialGradient>
<path fill="url(#SVGID_10_)" d="M17.025,158.514l-15.103,25.25C1.341,185.012,1.946,186,3.444,186h6.281l13.445-22.335
	l-6.146-10.173C17.854,154.87,17.854,157.13,17.025,158.514"/>
<radialGradient id="SVGID_11_" cx="749.8789" cy="-958.4346" r="40.5374" gradientTransform="matrix(0.498 0 0 -0.498 -356.2961 -327.3156)" gradientUnits="userSpaceOnUse">
	<stop  offset="0" style="stop-color:#567FC0"/>
	<stop  offset="1" style="stop-color:#557FC0"/>
</radialGradient>
<path fill="url(#SVGID_11_)" d="M3.444,126c-1.613,0-2.254,1.133-1.424,2.512l24.529,40.744c0.771,1.288,0.795,3.316,0.119,4.713
	l5.963-9.925L9.729,126H3.444z"/>
<radialGradient id="SVGID_12_" cx="761.9434" cy="-948.4707" r="33.0572" gradientTransform="matrix(0.498 0 0 -0.498 -356.2961 -327.3156)" gradientUnits="userSpaceOnUse">
	<stop  offset="0" style="stop-color:#E14C40"/>
	<stop  offset="1" style="stop-color:#CD392D"/>
</radialGradient>
<path fill="url(#SVGID_12_)" d="M9.729,126l22.902,38.045l3.321-5.529c0.83-1.386,0.83-3.646,0-5.021l-15.004-24.979
	C20.12,127.133,18.124,126,16.517,126H9.729z"/>
<g>
	<g>
		<text transform="matrix(0.9185 0 0 1 49.0029 157.0781)" fill="#E6E6E5" font-family="'AIRSHOW'" font-size="28.0133">CTHPC</text>
	</g>
	<g>
		<path fill="#E6E6E5" d="M95.633,136.166c0.045-1.217,0.535-2.43,0.895-3.549c0.312-0.971,0.58-2.434,1.474-2.918
			c-1.562,0.484-2.188,3.16-2.681,4.669c-0.399,1.216-0.85,2.382-0.981,3.646c0.134-1.797,1.341-3.891,2.146-5.396
			c0.582-1.022,1.072-2.582,2.145-3.062c-1.34,0.584-2.055,3.596-2.545,5.055c-0.402,1.121-0.715,2.283-1.072,3.453
			c0.045-0.535,0.225-1.117,0.357-1.651"/>
	</g>
	<g>
		<path d="M95.436,133.004c0.09,0.686-0.312,1.555-0.492,2.189c-0.176-1.994,1.877-3.986,2.728-5.545
			c-0.67,1.803-1.784,3.354-2.457,5.203c-0.354,1.121-0.354,2.188-0.625,3.262c-0.133-0.439-0.312-1.411-0.18-1.896
			c0.18-0.729,1.026-1.461,1.34-2.236c-0.133,1.021-0.668,1.992-0.806,3.017c-0.088,0.874,0,1.751,0,2.575"/>
		<g>
			<path fill="#E6E6E5" d="M93.99,133.191c-0.021,0.783-0.254,1.451-0.492,2.188c0.965-0.19,1.93-0.385,2.896-0.575
				c0.016-1.99,1.664-3.527,2.623-5.14c-0.933,0.058-1.861,0.112-2.793,0.17c-0.56,1.384-1.3,2.675-1.955,4.011
				c-0.703,1.428-0.812,2.924-1.129,4.454c0.965-0.19,1.932-0.385,2.896-0.575c-0.416-1.681,0.324-2.334,1.059-3.729
				c-0.932,0.058-1.861,0.114-2.791,0.171c-0.207,1.025-0.6,1.99-0.807,3.018c-0.176,0.877-0.02,1.893-0.002,2.775
				c0.018,0.875,2.92,0.318,2.898-0.777c-0.039-1.986,0.42-3.49,0.803-5.393c0.227-1.117-2.457-0.467-2.793,0.172
				c-0.918,1.748-1.78,2.461-1.264,4.541c0.243,0.98,2.729,0.219,2.896-0.578c0.319-1.547,0.473-2.998,1.127-4.455
				c0.61-1.359,1.396-2.623,1.955-4.01c0.389-0.963-2.41-0.473-2.793,0.172c-1.158,1.946-2.81,3.562-2.83,5.951
				c-0.009,0.967,2.664,0.146,2.896-0.578c0.236-0.738,0.473-1.406,0.492-2.188C96.912,131.646,94.014,132.268,93.99,133.191
				L93.99,133.191z"/>
		</g>
	</g>
	<g>
		<path fill="#E6E6E5" d="M104.924,138.162"/>
	</g>
	<g>
		<path fill="#E6E6E5" d="M105.059,140.107c0.09-1.072-1.115-2.045-1.115-2.531"/>
	</g>
	<g>
		<g>
			<path d="M96.402,131.012c0.045,1.07-1.027,2.432-1.387,3.402c-0.58,1.314-1.16,2.674-1.341,4.137
				c-0.043-1.557,1.072-3.455,1.478-4.961c0.133-0.686,0.18-1.802,0.58-2.385c0.268-0.342,0.58-0.391,0.803-0.73
				c0.182-0.242,0.225-0.629,0.404-0.875c0.133,0.826-0.537,1.654-0.853,2.334c-0.399,0.879-0.758,1.705-1.024,2.625
				c-0.715,2.096-1.295,4.188-1.295,6.422c0-0.633,0-1.264,0-1.944"/>
			<g>
				<path fill="#E6E6E5" d="M94.971,131.254c-0.143,1.262-0.877,2.266-1.387,3.402c-0.603,1.346-1.096,2.68-1.34,4.137
					c0.959-0.209,1.92-0.42,2.881-0.63c0.098-1.7,0.961-3.214,1.459-4.813c0.295-0.945,0.039-1.852,0.887-2.59
					c0.479-0.42,0.639-0.826,0.9-1.398c-0.959,0.209-1.92,0.42-2.881,0.629c-0.094,1.759-1.557,3.896-2.121,5.597
					c-0.627,1.89-0.989,3.8-1.052,5.784c0.966-0.26,1.933-0.52,2.899-0.775c0-0.648,0-1.298,0-1.945c0-0.56-2.899-0.114-2.899,0.776
					c0,0.647,0,1.298,0,1.944c0,0.564,2.871,0.104,2.899-0.775c0.076-2.445,0.755-4.646,1.496-6.949
					c0.485-1.519,1.591-2.824,1.677-4.433c0.034-0.662-2.638,0.095-2.884,0.632c-0.291,0.631-0.942,1.03-1.207,1.604
					c-0.354,0.771-0.448,1.549-0.58,2.384c-0.276,1.774-1.386,3.258-1.492,5.108c-0.031,0.543,2.762,0.084,2.881-0.629
					c0.246-1.463,0.75-2.783,1.34-4.139c0.5-1.146,1.244-2.135,1.387-3.402C97.93,129.949,95.053,130.521,94.971,131.254
					L94.971,131.254z"/>
			</g>
		</g>
		<g>
			<path d="M104.037,138.867c0.27-2.41-0.537-4.816-0.873-7.15c0.336,1.68,1.34,3.064,2.145,4.449
				c0.805,1.459,1.478,2.992,2.213,4.447c-0.873-1.969-2.145-3.791-3.018-5.762c-0.535-1.021-0.869-2.261-1.406-3.283
				c-1.74,2.41-0.133,6.566,0.736,9.045c0.203-1.092,0-3.061-0.469-4.008c-0.201,0.58-0.133,1.24,0.066,1.75
				c0-0.658,0.067-1.387-0.132-1.971c-0.202,0.508-0.137,1.311-0.067,1.895c-0.135-0.436-0.271-1.389-0.404-2.041
				c-0.398,1.166-0.064,2.334,0.203,3.5c-0.135-1.166-0.203-2.77-0.604-3.938c0.336,0.948,0.27,2.045,0.872,2.918"/>
			<g>
				<path fill="#E6E6E5" d="M105.496,138.725c0.186-2.524-0.486-4.922-0.883-7.396c-0.965,0.26-1.932,0.521-2.896,0.776
					c0.336,1.363,0.98,2.545,1.701,3.74c1,1.662,1.791,3.422,2.654,5.156c0.562,1.129,3.398,0.299,2.898-0.777
					c-0.681-1.453-1.484-2.836-2.263-4.238c-0.854-1.549-1.399-3.217-2.164-4.807c-0.513-1.062-2.312-0.527-2.817,0.281
					c-1.834,2.924-0.381,6.596,0.657,9.541c0.396,1.116,2.771,0.521,2.908-0.529c0.188-1.406,0.067-2.938-0.479-4.256
					c-0.461-1.109-2.703-0.525-2.908,0.529c-0.141,0.723-0.118,1.277,0.076,1.997c0.306,1.11,2.894,0.521,2.91-0.53
					c0.01-0.756,0.023-1.477-0.145-2.217c-0.279-1.236-2.68-0.395-2.908,0.529c-0.178,0.719-0.129,1.414-0.057,2.145
					c0.965-0.26,1.934-0.52,2.898-0.777c-0.168-0.674-0.275-1.357-0.404-2.041c-0.236-1.242-2.687-0.383-2.91,0.529
					c-0.314,1.295-0.084,2.467,0.215,3.748c0.287,1.227,3.025,0.443,2.898-0.777c-0.144-1.328-0.23-2.649-0.605-3.939
					c-0.348-1.2-3.238-0.415-2.896,0.777c0.312,1.092,0.43,2.131,0.984,3.138c0.555,0.999,3.35,0.012,2.672-1.216
					c-0.459-0.827-0.502-1.805-0.76-2.699c-0.965,0.259-1.932,0.52-2.896,0.777c0.373,1.289,0.463,2.609,0.604,3.939
					c0.967-0.26,1.935-0.52,2.897-0.777c-0.264-1.121-0.475-2.104-0.192-3.254c-0.97,0.178-1.938,0.354-2.908,0.531
					c0.131,0.682,0.238,1.365,0.403,2.041c0.304,1.229,3.021,0.439,2.898-0.777c-0.062-0.605-0.066-1.063,0.078-1.647
					c-0.971,0.179-1.939,0.354-2.91,0.53c0.133,0.576,0.131,1.132,0.121,1.724c0.971-0.179,1.939-0.354,2.908-0.53
					c-0.201-0.484-0.221-0.986-0.055-1.502c-0.971,0.176-1.939,0.354-2.91,0.528c0.494,1.185,0.629,2.494,0.459,3.763
					c0.971-0.178,1.939-0.355,2.908-0.529c-0.904-2.562-2.422-5.992-0.814-8.549c-0.941,0.094-1.881,0.188-2.82,0.28
					c0.705,1.464,1.24,2.993,1.974,4.448c0.78,1.554,1.717,3.02,2.45,4.597c0.968-0.26,1.935-0.521,2.898-0.776
					c-0.684-1.369-1.307-2.771-2.031-4.117c-0.852-1.584-1.887-3.008-2.324-4.78c-0.299-1.21-3.096-0.452-2.897,0.776
					c0.369,2.305,1.033,4.55,0.861,6.904C102.477,140.383,105.412,139.887,105.496,138.725L105.496,138.725z"/>
			</g>
		</g>
	</g>
	<g>
		<path fill="#E6E6E5" d="M106.355,143.021"/>
	</g>
</g>
<text transform="matrix(1 0 0 1 51.3735 178.0664)" fill="#E6E6E5" font-family="'AndaleMono'" font-size="18.7918">2020 Season</text>
<g>
	<g>
		<text transform="matrix(0.9185 0 0 1 49.0029 95.0781)" fill="#4E4E4E" font-family="'AIRSHOW'" font-size="28.0133">CTHPC</text>
	</g>
	<g>
		<path fill="#4E4E4E" d="M95.633,74.166c0.045-1.217,0.535-2.43,0.895-3.549c0.312-0.971,0.58-2.434,1.474-2.918
			c-1.562,0.484-2.188,3.16-2.681,4.669c-0.399,1.216-0.85,2.382-0.981,3.646c0.134-1.797,1.341-3.891,2.146-5.396
			c0.582-1.023,1.072-2.582,2.145-3.062c-1.34,0.584-2.055,3.597-2.545,5.056c-0.402,1.12-0.715,2.283-1.072,3.453
			c0.043-0.535,0.223-1.117,0.357-1.652"/>
	</g>
	<g>
		<path fill="#4E4E4E" d="M95.436,71.004c0.09,0.685-0.312,1.555-0.492,2.189c-0.176-1.994,1.877-3.986,2.728-5.545
			c-0.67,1.803-1.784,3.355-2.457,5.203c-0.354,1.121-0.354,2.189-0.625,3.262c-0.133-0.439-0.312-1.411-0.18-1.896
			c0.18-0.729,1.026-1.461,1.34-2.237c-0.133,1.021-0.668,1.993-0.806,3.017c-0.088,0.874,0,1.751,0,2.575"/>
		<g>
			<path fill="#4E4E4E" d="M93.99,71.192c-0.021,0.782-0.254,1.45-0.492,2.188c0.965-0.191,1.93-0.385,2.896-0.576
				c0.016-1.989,1.664-3.527,2.623-5.139c-0.933,0.057-1.861,0.113-2.793,0.17c-0.56,1.383-1.3,2.674-1.955,4.01
				c-0.703,1.428-0.812,2.924-1.129,4.455c0.965-0.191,1.932-0.385,2.896-0.576c-0.416-1.68,0.323-2.334,1.06-3.729
				c-0.933,0.058-1.861,0.114-2.793,0.171c-0.207,1.025-0.599,1.991-0.806,3.018c-0.177,0.877-0.021,1.892-0.002,2.775
				c0.019,0.875,2.92,0.318,2.897-0.777c-0.039-1.986,0.42-3.49,0.803-5.393c0.228-1.117-2.457-0.467-2.793,0.172
				c-0.918,1.748-1.779,2.461-1.264,4.541c0.244,0.981,2.73,0.219,2.896-0.578c0.32-1.547,0.473-2.998,1.127-4.455
				c0.611-1.36,1.396-2.623,1.955-4.01c0.389-0.963-2.41-0.472-2.793,0.172c-1.158,1.946-2.811,3.562-2.83,5.951
				c-0.008,0.967,2.664,0.146,2.896-0.578c0.235-0.738,0.473-1.406,0.491-2.188C96.912,69.646,94.012,70.268,93.99,71.192
				L93.99,71.192z"/>
		</g>
	</g>
	<g>
		<path fill="#4E4E4E" d="M104.924,76.162"/>
	</g>
	<g>
		<path fill="#4E4E4E" d="M105.059,78.107c0.09-1.072-1.115-2.045-1.115-2.531"/>
	</g>
	<g>
		<g>
			<path fill="#4E4E4E" d="M96.402,69.012c0.045,1.07-1.027,2.432-1.387,3.402c-0.58,1.314-1.16,2.674-1.341,4.137
				c-0.043-1.557,1.072-3.455,1.478-4.961c0.133-0.685,0.18-1.802,0.58-2.385c0.268-0.341,0.58-0.39,0.803-0.73
				c0.182-0.242,0.225-0.629,0.404-0.875c0.133,0.826-0.537,1.654-0.853,2.334c-0.399,0.878-0.758,1.705-1.024,2.625
				c-0.715,2.095-1.295,4.188-1.295,6.422c0-0.633,0-1.264,0-1.945"/>
			<g>
				<path fill="#4E4E4E" d="M94.971,69.254c-0.143,1.262-0.877,2.266-1.387,3.402c-0.603,1.346-1.096,2.68-1.34,4.137
					c0.959-0.209,1.92-0.42,2.881-0.63c0.098-1.7,0.961-3.214,1.459-4.813c0.295-0.945,0.039-1.852,0.887-2.59
					c0.479-0.42,0.639-0.826,0.9-1.399c-0.959,0.21-1.92,0.42-2.881,0.63c-0.094,1.758-1.557,3.896-2.121,5.596
					c-0.627,1.889-0.989,3.799-1.052,5.784c0.966-0.259,1.933-0.519,2.9-0.776c0-0.648,0-1.297,0-1.945c0-0.559-2.9-0.114-2.9,0.777
					c0,0.646,0,1.297,0,1.944c0,0.565,2.871,0.103,2.9-0.776c0.076-2.444,0.754-4.646,1.496-6.949
					c0.486-1.518,1.59-2.824,1.676-4.432c0.035-0.662-2.637,0.094-2.883,0.631c-0.291,0.631-0.943,1.031-1.207,1.604
					c-0.355,0.772-0.449,1.549-0.58,2.384c-0.277,1.775-1.386,3.258-1.492,5.109c-0.031,0.542,2.761,0.084,2.88-0.63
					c0.246-1.462,0.75-2.782,1.34-4.138c0.5-1.146,1.244-2.135,1.387-3.402C97.93,67.949,95.053,68.522,94.971,69.254L94.971,69.254
					z"/>
			</g>
		</g>
		<g>
			<path fill="#4E4E4E" d="M104.037,76.867c0.27-2.41-0.537-4.816-0.873-7.15c0.336,1.679,1.34,3.064,2.145,4.449
				c0.805,1.459,1.478,2.992,2.213,4.448c-0.873-1.969-2.145-3.792-3.018-5.763c-0.535-1.02-0.869-2.26-1.406-3.282
				c-1.74,2.409-0.133,6.565,0.736,9.045c0.203-1.093,0-3.062-0.469-4.009c-0.201,0.58-0.133,1.24,0.066,1.75
				c0-0.657,0.067-1.387-0.132-1.971c-0.202,0.508-0.137,1.312-0.067,1.896c-0.135-0.436-0.271-1.389-0.404-2.041
				c-0.398,1.166-0.064,2.334,0.203,3.5c-0.135-1.166-0.203-2.771-0.604-3.939c0.336,0.949,0.27,2.045,0.872,2.918"/>
			<g>
				<path fill="#4E4E4E" d="M105.496,76.725c0.186-2.525-0.486-4.922-0.883-7.396c-0.965,0.26-1.932,0.52-2.896,0.777
					c0.336,1.363,0.98,2.545,1.701,3.74c1,1.662,1.791,3.422,2.654,5.156c0.562,1.129,3.398,0.299,2.898-0.777
					c-0.681-1.453-1.484-2.836-2.263-4.239c-0.854-1.548-1.399-3.216-2.164-4.806c-0.513-1.062-2.312-0.528-2.817,0.281
					c-1.834,2.924-0.381,6.596,0.657,9.541c0.396,1.116,2.771,0.521,2.908-0.529c0.188-1.406,0.067-2.939-0.479-4.256
					c-0.461-1.109-2.703-0.525-2.908,0.529c-0.141,0.723-0.118,1.277,0.076,1.997c0.306,1.11,2.894,0.521,2.91-0.53
					c0.01-0.756,0.023-1.476-0.145-2.217c-0.279-1.236-2.68-0.394-2.908,0.53c-0.178,0.718-0.129,1.413-0.057,2.144
					c0.965-0.26,1.934-0.52,2.898-0.777c-0.168-0.674-0.275-1.358-0.404-2.041c-0.236-1.242-2.687-0.383-2.91,0.529
					c-0.314,1.295-0.084,2.467,0.215,3.748c0.287,1.227,3.025,0.443,2.898-0.777c-0.144-1.329-0.23-2.65-0.605-3.94
					c-0.348-1.2-3.238-0.415-2.896,0.777c0.312,1.092,0.43,2.131,0.984,3.138c0.555,0.999,3.35,0.012,2.672-1.215
					c-0.459-0.828-0.502-1.805-0.76-2.7c-0.965,0.259-1.932,0.519-2.896,0.777c0.373,1.289,0.463,2.61,0.604,3.94
					c0.967-0.26,1.935-0.52,2.897-0.777c-0.264-1.122-0.475-2.104-0.192-3.254c-0.97,0.178-1.938,0.354-2.908,0.531
					c0.131,0.682,0.238,1.365,0.403,2.041c0.304,1.229,3.021,0.44,2.898-0.777c-0.062-0.606-0.066-1.064,0.078-1.648
					c-0.971,0.178-1.939,0.354-2.91,0.53c0.133,0.577,0.131,1.132,0.121,1.724c0.971-0.178,1.939-0.354,2.908-0.531
					c-0.201-0.484-0.221-0.985-0.055-1.502c-0.971,0.176-1.939,0.354-2.91,0.529c0.494,1.184,0.629,2.494,0.459,3.762
					c0.971-0.177,1.939-0.354,2.908-0.529c-0.904-2.562-2.422-5.992-0.814-8.549c-0.941,0.094-1.881,0.188-2.82,0.281
					c0.705,1.463,1.24,2.993,1.974,4.448c0.78,1.554,1.717,3.019,2.45,4.597c0.968-0.26,1.935-0.52,2.898-0.777
					c-0.684-1.368-1.307-2.77-2.031-4.117c-0.852-1.583-1.887-3.008-2.324-4.78c-0.299-1.21-3.096-0.452-2.897,0.777
					c0.369,2.304,1.033,4.549,0.861,6.903C102.477,78.383,105.412,77.887,105.496,76.725L105.496,76.725z"/>
			</g>
		</g>
	</g>
	<g>
		<path fill="#4E4E4E" d="M106.355,81.021"/>
	</g>
</g>
<text transform="matrix(1 0 0 1 51.3735 116.0664)" fill="#4E4E4E" font-family="'AndaleMono'" font-size="18.7918">2020 Season</text>
<g>
	<g>
		<text transform="matrix(0.9185 0 0 1 49.0029 32.0781)" fill="#4E4E4E" font-family="'AIRSHOW'" font-size="28.0133">CTHPC</text>
	</g>
	<g>
		<path fill="#4E4E4E" d="M95.633,11.166c0.045-1.217,0.535-2.43,0.895-3.549C96.84,6.646,97.107,5.184,98,4.699
			c-1.562,0.484-2.188,3.16-2.68,4.669c-0.4,1.216-0.85,2.382-0.982,3.646c0.133-1.797,1.34-3.891,2.145-5.396
			c0.582-1.023,1.072-2.582,2.146-3.062c-1.34,0.584-2.056,3.597-2.545,5.056c-0.401,1.12-0.715,2.283-1.071,3.453
			c0.043-0.535,0.223-1.117,0.356-1.652"/>
	</g>
	<g>
		<path fill="#4E4E4E" d="M95.436,8.004c0.09,0.685-0.312,1.555-0.492,2.189c-0.176-1.994,1.877-3.986,2.728-5.545
			C97,6.451,95.885,8.004,95.213,9.852c-0.355,1.121-0.355,2.189-0.625,3.262c-0.133-0.439-0.312-1.411-0.18-1.896
			c0.18-0.729,1.027-1.461,1.34-2.237c-0.133,1.021-0.668,1.993-0.805,3.017c-0.088,0.874,0,1.751,0,2.575"/>
		<g>
			<path fill="#4E4E4E" d="M93.99,8.192c-0.021,0.782-0.254,1.45-0.492,2.188c0.965-0.191,1.93-0.385,2.896-0.576
				c0.016-1.989,1.664-3.527,2.623-5.139c-0.933,0.057-1.861,0.113-2.793,0.17c-0.56,1.383-1.3,2.674-1.955,4.01
				c-0.703,1.428-0.812,2.924-1.129,4.455c0.965-0.191,1.932-0.385,2.896-0.576c-0.416-1.68,0.323-2.334,1.06-3.729
				c-0.933,0.058-1.861,0.114-2.793,0.171c-0.207,1.025-0.599,1.991-0.806,3.018c-0.177,0.877-0.021,1.892-0.002,2.775
				c0.019,0.875,2.92,0.318,2.897-0.777c-0.039-1.986,0.42-3.49,0.803-5.393c0.228-1.117-2.457-0.467-2.793,0.172
				c-0.918,1.748-1.779,2.461-1.264,4.541c0.244,0.981,2.73,0.219,2.896-0.578c0.32-1.547,0.473-2.998,1.127-4.455
				c0.611-1.36,1.396-2.623,1.955-4.01c0.389-0.963-2.41-0.472-2.793,0.172c-1.158,1.946-2.811,3.562-2.83,5.951
				c-0.008,0.967,2.664,0.146,2.896-0.578c0.235-0.738,0.473-1.406,0.491-2.188C96.912,6.646,94.012,7.268,93.99,8.192L93.99,8.192z
				"/>
		</g>
	</g>
	<g>
		<path fill="#4E4E4E" d="M104.924,13.162"/>
	</g>
	<g>
		<path fill="#4E4E4E" d="M105.059,15.107c0.09-1.072-1.115-2.045-1.115-2.531"/>
	</g>
	<g>
		<g>
			<path fill="#4E4E4E" d="M96.402,6.012c0.045,1.07-1.027,2.432-1.387,3.402c-0.58,1.314-1.16,2.674-1.341,4.137
				c-0.043-1.557,1.072-3.455,1.478-4.961c0.133-0.685,0.18-1.802,0.58-2.385c0.268-0.341,0.58-0.39,0.803-0.73
				c0.182-0.242,0.225-0.629,0.404-0.875c0.133,0.826-0.537,1.654-0.853,2.334c-0.399,0.878-0.758,1.705-1.024,2.625
				c-0.715,2.095-1.295,4.188-1.295,6.422c0-0.633,0-1.264,0-1.945"/>
			<g>
				<path fill="#4E4E4E" d="M94.971,6.254c-0.143,1.262-0.877,2.266-1.387,3.402c-0.603,1.346-1.096,2.68-1.34,4.137
					c0.959-0.209,1.92-0.42,2.881-0.63c0.098-1.7,0.961-3.214,1.459-4.813c0.295-0.945,0.039-1.852,0.887-2.59
					c0.479-0.42,0.639-0.826,0.9-1.399c-0.959,0.21-1.92,0.42-2.881,0.63c-0.094,1.758-1.557,3.896-2.121,5.596
					c-0.627,1.889-0.989,3.799-1.052,5.784c0.966-0.259,1.933-0.519,2.9-0.776c0-0.648,0-1.297,0-1.945c0-0.559-2.9-0.114-2.9,0.777
					c0,0.646,0,1.297,0,1.944c0,0.565,2.871,0.103,2.9-0.776c0.076-2.444,0.754-4.646,1.496-6.949
					c0.486-1.518,1.59-2.824,1.676-4.432c0.035-0.662-2.637,0.094-2.883,0.631c-0.291,0.631-0.943,1.031-1.207,1.604
					c-0.355,0.772-0.449,1.549-0.58,2.384c-0.277,1.775-1.386,3.258-1.492,5.109c-0.031,0.542,2.761,0.084,2.88-0.63
					c0.246-1.462,0.75-2.782,1.34-4.138c0.5-1.146,1.244-2.135,1.387-3.402C97.93,4.949,95.053,5.522,94.971,6.254L94.971,6.254z"/>
			</g>
		</g>
		<g>
			<path fill="#4E4E4E" d="M104.037,13.867c0.27-2.41-0.537-4.816-0.873-7.15c0.336,1.679,1.34,3.064,2.145,4.449
				c0.805,1.459,1.478,2.992,2.213,4.448c-0.873-1.969-2.145-3.792-3.018-5.763c-0.535-1.02-0.869-2.26-1.406-3.282
				c-1.74,2.409-0.133,6.565,0.736,9.045c0.203-1.093,0-3.062-0.469-4.009c-0.201,0.58-0.133,1.24,0.066,1.75
				c0-0.657,0.067-1.387-0.132-1.971c-0.202,0.508-0.137,1.312-0.067,1.896c-0.135-0.436-0.271-1.389-0.404-2.041
				c-0.398,1.166-0.064,2.334,0.203,3.5c-0.135-1.166-0.203-2.771-0.604-3.939c0.336,0.949,0.27,2.045,0.872,2.918"/>
			<g>
				<path fill="#4E4E4E" d="M105.496,13.725c0.186-2.525-0.486-4.922-0.883-7.396c-0.965,0.26-1.932,0.52-2.896,0.777
					c0.336,1.363,0.98,2.545,1.701,3.74c1,1.662,1.791,3.422,2.654,5.156c0.562,1.129,3.398,0.299,2.898-0.777
					c-0.681-1.453-1.484-2.836-2.263-4.239c-0.854-1.548-1.399-3.216-2.164-4.806c-0.513-1.062-2.312-0.528-2.817,0.281
					c-1.834,2.924-0.381,6.596,0.657,9.541c0.396,1.116,2.771,0.521,2.908-0.529c0.188-1.406,0.067-2.939-0.479-4.256
					c-0.461-1.109-2.703-0.525-2.908,0.529c-0.141,0.723-0.118,1.277,0.076,1.997c0.306,1.11,2.894,0.521,2.91-0.53
					c0.01-0.756,0.023-1.476-0.145-2.217c-0.279-1.236-2.68-0.394-2.908,0.53c-0.178,0.718-0.129,1.413-0.057,2.144
					c0.965-0.26,1.934-0.52,2.898-0.777c-0.168-0.674-0.275-1.358-0.404-2.041c-0.236-1.242-2.687-0.383-2.91,0.529
					c-0.314,1.295-0.084,2.467,0.215,3.748c0.287,1.227,3.025,0.443,2.898-0.777c-0.144-1.329-0.23-2.65-0.605-3.94
					c-0.348-1.2-3.238-0.415-2.896,0.777c0.312,1.092,0.43,2.131,0.984,3.138c0.555,0.999,3.35,0.012,2.672-1.215
					c-0.459-0.828-0.502-1.805-0.76-2.7c-0.965,0.259-1.932,0.519-2.896,0.777c0.373,1.289,0.463,2.61,0.604,3.94
					c0.967-0.26,1.935-0.52,2.897-0.777c-0.264-1.122-0.475-2.104-0.192-3.254c-0.97,0.178-1.938,0.354-2.908,0.531
					c0.131,0.682,0.238,1.365,0.403,2.041c0.304,1.229,3.021,0.44,2.898-0.777c-0.062-0.606-0.066-1.064,0.078-1.648
					c-0.971,0.178-1.939,0.354-2.91,0.53c0.133,0.577,0.131,1.132,0.121,1.724c0.971-0.178,1.939-0.354,2.908-0.531
					c-0.201-0.484-0.221-0.985-0.055-1.502c-0.971,0.176-1.939,0.354-2.91,0.529c0.494,1.184,0.629,2.494,0.459,3.762
					c0.971-0.177,1.939-0.354,2.908-0.529c-0.904-2.562-2.422-5.992-0.814-8.549c-0.941,0.094-1.881,0.188-2.82,0.281
					c0.705,1.463,1.24,2.993,1.974,4.448c0.78,1.554,1.717,3.019,2.45,4.597c0.968-0.26,1.935-0.52,2.898-0.777
					c-0.684-1.368-1.307-2.77-2.031-4.117c-0.852-1.583-1.887-3.008-2.324-4.78c-0.299-1.21-3.096-0.452-2.897,0.777
					c0.369,2.304,1.033,4.549,0.861,6.903C102.477,15.383,105.412,14.887,105.496,13.725L105.496,13.725z"/>
			</g>
		</g>
	</g>
	<g>
		<path fill="#4E4E4E" d="M106.355,18.021"/>
	</g>
</g>
<text transform="matrix(1 0 0 1 51.3735 53.0664)" fill="#4E4E4E" font-family="'AndaleMono'" font-size="18.7918">2020 Season</text>
</svg>
